<svg width="1584" height="396" viewBox="0 0 1584 396" fill="none" xmlns="http://www.w3.org/2000/svg">
<rect width="1584" height="396" fill="#F5F5F5"/>
<g id="Awesome banner" clip-path="url(#clip0_0_1)">
<rect width="1584" height="396" fill="url(#paint0_linear_0_1)"/>
<ellipse id="Ellipse 2" cx="323" cy="64" rx="285" ry="288" fill="url(#paint1_linear_0_1)" fill-opacity="0.1"/>
<g id="copyright">
<path d="M75.95 334.52L72.30 334.52L72.30 311.16L77.20 311.16L83.70 330.04Q83.60 329.02 83.50 327.62Q83.41 326.23 83.33 324.79Q83.25 323.35 83.25 322.23L83.25 311.16L86.90 311.16L86.90 334.52L82 334.52L75.57 315.64Q75.63 316.57 75.73 317.88Q75.82 319.19 75.89 320.57Q75.95 321.94 75.95 323.10L75.95 334.52M98.80 334.84Q96.46 334.84 94.67 333.96Q92.88 333.08 91.89 331.53Q90.90 329.98 90.90 327.93Q90.90 325.78 92.13 324.18Q93.36 322.58 95.34 322.17L95.34 322.10Q93.65 321.75 92.61 320.38Q91.57 319 91.57 317.11Q91.57 315.26 92.48 313.85Q93.39 312.44 95.02 311.64Q96.66 310.84 98.80 310.84Q100.94 310.84 102.59 311.64Q104.24 312.44 105.15 313.85Q106.06 315.26 106.06 317.11Q106.06 319 105.01 320.38Q103.95 321.75 102.26 322.10L102.26 322.17Q104.24 322.58 105.47 324.18Q106.70 325.78 106.70 327.93Q106.70 329.98 105.71 331.53Q104.72 333.08 102.93 333.96Q101.14 334.84 98.80 334.84M98.80 320.73Q100.30 320.73 101.23 319.82Q102.16 318.90 102.16 317.46Q102.16 315.99 101.23 315.08Q100.30 314.17 98.80 314.17Q97.30 314.17 96.37 315.08Q95.44 315.99 95.44 317.46Q95.44 318.90 96.37 319.82Q97.30 320.73 98.80 320.73M98.80 331.45Q100.56 331.45 101.68 330.42Q102.80 329.40 102.80 327.74Q102.80 326.04 101.68 325Q100.56 323.96 98.80 323.96Q97.04 323.96 95.92 325Q94.80 326.04 94.80 327.74Q94.80 329.40 95.92 330.42Q97.04 331.45 98.80 331.45M114.35 334.52L110.70 334.52L110.70 311.16L115.60 311.16L122.10 330.04Q122 329.02 121.90 327.62Q121.81 326.23 121.73 324.79Q121.65 323.35 121.65 322.23L121.65 311.16L125.30 311.16L125.30 334.52L120.40 334.52L113.97 315.64Q114.03 316.57 114.13 317.88Q114.22 319.19 114.29 320.57Q114.35 321.94 114.35 323.10" fill="white" fill-opacity="0.9"/>
<path d="M161.48 325.24L151.24 325.24L151.24 322.68L161.48 322.68" fill="white" fill-opacity="0.9"/>
<path d="M195.02 334.84Q191.82 334.84 189.96 333.05Q188.11 331.26 188.11 328.12L188.11 317.56Q188.11 314.42 189.96 312.63Q191.82 310.84 195.02 310.84Q198.15 310.84 200.01 312.65Q201.87 314.46 201.87 317.56L198.99 317.56Q198.99 315.58 197.95 314.50Q196.91 313.43 195.02 313.43Q193.13 313.43 192.06 314.50Q190.99 315.58 190.99 317.56L190.99 328.12Q190.99 330.10 192.06 331.18Q193.13 332.25 195.02 332.25Q196.91 332.25 197.95 331.18Q198.99 330.10 198.99 328.12L201.87 328.12Q201.87 331.22 200.01 333.03Q198.15 334.84 195.02 334.84" fill="white" fill-opacity="0.9"/>
<path d="M213.96 334.84Q210.83 334.84 209 333.02Q207.18 331.19 207.18 327.80L207.18 317.88Q207.18 314.49 209 312.66Q210.83 310.84 213.96 310.84Q217.10 310.84 218.92 312.66Q220.75 314.49 220.75 317.85L220.75 327.80Q220.75 331.19 218.92 333.02Q217.10 334.84 213.96 334.84M213.96 332.25Q215.85 332.25 216.86 331.18Q217.87 330.10 217.87 328.12L217.87 317.56Q217.87 315.58 216.86 314.50Q215.85 313.43 213.96 313.43Q212.11 313.43 211.08 314.50Q210.06 315.58 210.06 317.56L210.06 328.12Q210.06 330.10 211.08 331.18Q212.11 332.25 213.96 332.25" fill="white" fill-opacity="0.9"/>
<path d="M228.65 334.52L225.87 334.52L225.87 311.16L230.12 311.16L233.10 321.27L236.20 311.16L240.46 311.16L240.46 334.52L237.67 334.52L237.67 323.48Q237.67 321.91 237.72 319.88Q237.77 317.85 237.87 315.77Q237.96 313.69 238.09 312.02L234.31 324.09L231.82 324.09L228.20 312.31Q228.46 314.68 228.55 317.50Q228.65 320.31 228.65 323.48" fill="white" fill-opacity="0.9"/>
<path d="M247.85 334.52L245.07 334.52L245.07 311.16L249.32 311.16L252.30 321.27L255.40 311.16L259.66 311.16L259.66 334.52L256.87 334.52L256.87 323.48Q256.87 321.91 256.92 319.88Q256.97 317.85 257.07 315.77Q257.16 313.69 257.29 312.02L253.51 324.09L251.02 324.09L247.40 312.31Q247.66 314.68 247.75 317.50Q247.85 320.31 247.85 323.48" fill="white" fill-opacity="0.9"/>
<path d="M271.56 334.84Q268.30 334.84 266.57 333.03Q264.84 331.22 264.84 328.12L264.84 311.16L267.72 311.16L267.72 328.12Q267.72 330.04 268.67 331.16Q269.61 332.28 271.56 332.28Q273.48 332.28 274.44 331.16Q275.40 330.04 275.40 328.12L275.40 311.16L278.28 311.16L278.28 328.12Q278.28 331.26 276.57 333.05Q274.86 334.84 271.56 334.84" fill="white" fill-opacity="0.9"/>
<path d="M286.83 334.52L284.04 334.52L284.04 311.16L287.88 311.16L295.02 331.16Q294.95 330.36 294.87 329.19Q294.79 328.02 294.75 326.73Q294.70 325.43 294.70 324.28L294.70 311.16L297.48 311.16L297.48 334.52L293.64 334.52L286.54 314.52Q286.60 315.29 286.67 316.46Q286.73 317.62 286.78 318.92Q286.83 320.22 286.83 321.40" fill="white" fill-opacity="0.9"/>
<path d="M316.20 334.52L303.72 334.52L303.72 331.90L308.49 331.90L308.49 313.78L303.72 313.78L303.72 311.16L316.20 311.16L316.20 313.78L311.43 313.78L311.43 331.90L316.20 331.90" fill="white" fill-opacity="0.9"/>
<path d="M330.60 334.52L327.72 334.52L327.72 313.78L321.32 313.78L321.32 311.16L337 311.16L337 313.78L330.60 313.78" fill="white" fill-opacity="0.9"/>
<path d="M349.80 334.52L346.92 334.52L346.92 325.78L339.88 311.16L342.95 311.16L347.50 320.76Q347.88 321.56 348.11 322.12Q348.33 322.68 348.39 322.94Q348.46 322.68 348.70 322.12Q348.94 321.56 349.32 320.76L353.87 311.16L356.84 311.16L349.80 325.78" fill="white" fill-opacity="0.9"/>
<path d="M382.83 334.52L380.04 334.52L380.04 311.16L383.88 311.16L391.02 331.16Q390.95 330.36 390.87 329.19Q390.79 328.02 390.75 326.73Q390.70 325.43 390.70 324.28L390.70 311.16L393.48 311.16L393.48 334.52L389.64 334.52L382.54 314.52Q382.60 315.29 382.67 316.46Q382.73 317.62 382.78 318.92Q382.83 320.22 382.83 321.40" fill="white" fill-opacity="0.9"/>
<path d="M405.96 334.84Q402.83 334.84 401 333.02Q399.18 331.19 399.18 327.80L399.18 317.88Q399.18 314.49 401 312.66Q402.83 310.84 405.96 310.84Q409.10 310.84 410.92 312.66Q412.75 314.49 412.75 317.85L412.75 327.80Q412.75 331.19 410.92 333.02Q409.10 334.84 405.96 334.84M405.96 332.25Q407.85 332.25 408.86 331.18Q409.87 330.10 409.87 328.12L409.87 317.56Q409.87 315.58 408.86 314.50Q407.85 313.43 405.96 313.43Q404.11 313.43 403.08 314.50Q402.06 315.58 402.06 317.56L402.06 328.12Q402.06 330.10 403.08 331.18Q404.11 332.25 405.96 332.25" fill="white" fill-opacity="0.9"/>
<path d="M424.55 334.52L418.51 334.52L418.51 311.16L424.55 311.16Q426.83 311.16 428.47 312.02Q430.12 312.89 431.03 314.46Q431.95 316.02 431.95 318.17L431.95 327.48Q431.95 329.62 431.03 331.21Q430.12 332.79 428.47 333.66Q426.83 334.52 424.55 334.52M421.39 313.72L421.39 331.96L424.55 331.96Q426.67 331.96 427.87 330.78Q429.07 329.59 429.07 327.48L429.07 318.17Q429.07 316.09 427.87 314.90Q426.67 313.72 424.55 313.72" fill="white" fill-opacity="0.9"/>
<path d="M451.40 334.52L437.96 334.52L437.96 311.16L451.40 311.16L451.40 313.78L440.81 313.78L440.81 321.02L450.28 321.02L450.28 323.58L440.81 323.58L440.81 331.90L451.40 331.90" fill="white" fill-opacity="0.9"/>
<path d="M463.69 334.84Q460.30 334.84 458.28 333.05Q456.27 331.26 456.27 328.12L459.15 328.12Q459.15 330.07 460.39 331.18Q461.64 332.28 463.69 332.28Q465.67 332.28 466.86 331.13Q468.04 329.98 468.04 328.12Q468.04 326.71 467.29 325.67Q466.54 324.63 465.13 324.25L461.58 323.26Q459.37 322.62 458.11 320.97Q456.84 319.32 456.84 317.08Q456.84 315.22 457.67 313.82Q458.51 312.41 460.01 311.62Q461.51 310.84 463.47 310.84Q465.45 310.84 466.97 311.62Q468.49 312.41 469.35 313.80Q470.22 315.19 470.22 317.02L467.34 317.02Q467.34 315.42 466.25 314.41Q465.16 313.40 463.47 313.40Q461.77 313.40 460.71 314.41Q459.66 315.42 459.66 317.02Q459.66 318.30 460.35 319.21Q461.03 320.12 462.28 320.47L465.93 321.50Q468.27 322.14 469.56 323.91Q470.86 325.69 470.86 328.12Q470.86 331.19 468.91 333.02Q466.95 334.84 463.69 334.84" fill="white" fill-opacity="0.9"/>
</g>
<path d="M77.30 197.88Q74.90 197.88 73.50 196.54Q72.11 195.19 72.11 192.84L72.11 184.92Q72.11 182.57 73.50 181.22Q74.90 179.88 77.30 179.88Q79.65 179.88 81.04 181.24Q82.43 182.59 82.43 184.92L80.27 184.92Q80.27 183.43 79.49 182.63Q78.71 181.82 77.30 181.82Q75.88 181.82 75.08 182.62Q74.27 183.41 74.27 184.90L74.27 192.84Q74.27 194.33 75.08 195.14Q75.88 195.96 77.30 195.96Q78.71 195.96 79.49 195.14Q80.27 194.33 80.27 192.84L80.27 190.44L76.72 190.44L76.72 188.47L82.43 188.47L82.43 192.84Q82.43 195.17 81.04 196.52Q79.65 197.88 77.30 197.88" fill="white" fill-opacity="0.7"/>
<path d="M91.60 197.83Q89.22 197.83 87.82 196.44Q86.42 195.05 86.42 192.55L86.42 189.53Q86.42 187.01 87.81 185.63Q89.20 184.25 91.60 184.25Q94 184.25 95.39 185.63Q96.78 187.01 96.78 189.53L96.78 192.55Q96.78 195.05 95.38 196.44Q93.98 197.83 91.60 197.83M91.60 195.91Q93.02 195.91 93.82 195.12Q94.62 194.33 94.62 192.79L94.62 189.29Q94.62 187.75 93.82 186.96Q93.02 186.17 91.60 186.17Q90.21 186.17 89.39 186.96Q88.58 187.75 88.58 189.29L88.58 192.79Q88.58 194.33 89.39 195.12Q90.21 195.91 91.60 195.91" fill="white" fill-opacity="0.7"/>
<path d="M107.08 197.64L104.92 197.64L104.92 182.09L100.12 182.09L100.12 180.12L111.88 180.12L111.88 182.09L107.08 182.09" fill="white" fill-opacity="0.7"/>
<path d="M120.40 197.83Q118.02 197.83 116.62 196.44Q115.22 195.05 115.22 192.55L115.22 189.53Q115.22 187.01 116.61 185.63QNaN 184.25 120.40 184.25Q122.80 184.25 124.19 185.63Q125.58 187.01 125.58 189.53L125.58 192.55Q125.58 195.05 124.18 196.44Q122.78 197.83 120.40 197.83M120.40 195.91Q121.82 195.91 122.62 195.12Q123.42 194.33 123.42 192.79L123.42 189.29Q123.42 187.75 122.62 186.96Q121.82 186.17 120.40 186.17Q119.01 186.17 118.19 186.96Q117.38 187.75 117.38 189.29L117.38 192.79Q117.38 194.33 118.19 195.12Q119.01 195.91 120.40 195.91" fill="white" fill-opacity="0.7"/>
<path d="M135.88 197.64L133.72 197.64L133.72 182.09L128.92 182.09L128.92 180.12L140.68 180.12L140.68 182.09L135.88 182.09" fill="white" fill-opacity="0.7"/>
<path d="M146.85 197.64L144.69 197.64L144.69 184.44L146.85 184.44L146.85 186.96L146.90 186.96Q147.06 185.69 147.98 184.94Q148.89 184.20 150.42 184.20Q152.49 184.20 153.60 185.44Q154.72 186.67 154.72 188.95L154.72 190.08L152.56 190.08L152.56 188.95Q152.56 186.07 149.75 186.07Q148.34 186.07 147.59 186.89Q146.85 187.70 146.85 189.24" fill="white" fill-opacity="0.7"/>
<path d="M162.45 197.88Q160.41 197.88 159.21 196.74Q158.01 195.60 158.01 193.75Q158.01 192.53 158.56 191.62Q159.11 190.70 160.10 190.19Q161.08 189.67 162.35 189.67L166.43 189.67L166.43 188.64Q166.43 186.07 163.62 186.07Q162.38 186.07 161.61 186.53Q160.84 186.98 160.79 187.80L158.63 187.80Q158.75 186.24 160.08 185.22Q161.42 184.20 163.62 184.20Q166.02 184.20 167.31 185.35Q168.59 186.50 168.59 188.57L168.59 197.64L166.46 197.64L166.46 195.24L166.41 195.24Q166.22 196.46 165.18 197.17Q164.15 197.88 162.45 197.88M162.98 196.06Q164.56 196.06 165.50 195.29Q166.43 194.52 166.43 193.20L166.43 191.35L162.59 191.35Q161.54 191.35 160.88 191.99Q160.22 192.62 160.22 193.68Q160.22 194.78 160.95 195.42Q161.68 196.06 162.98 196.06" fill="white" fill-opacity="0.7"/>
<path d="M184.12 197.64L172.84 197.64L172.84 195.67L177.52 195.67L177.52 186.41L173.32 186.41L173.32 184.44L179.68 184.44L179.68 195.67L184.12 195.67L184.12 197.64M178.36 182.06Q177.57 182.06 177.11 181.66Q176.66 181.25 176.66 180.55Q176.66 179.83 177.11 179.41Q177.57 178.99 178.36 178.99Q179.15 178.99 179.61 179.41Q180.06 179.83 180.06 180.55Q180.06 181.25 179.61 181.66Q179.15 182.06 178.36 182.06" fill="white" fill-opacity="0.7"/>
<path d="M189.57 197.64L187.41 197.64L187.41 184.44L189.57 184.44L189.57 186.96L189.59 186.96Q189.76 185.64 190.67 184.92Q191.58 184.20 193.10 184.20Q195.09 184.20 196.26 185.42Q197.44 186.65 197.44 188.76L197.44 197.64L195.28 197.64L195.28 189.14Q195.28 187.63 194.52 186.83Q193.77 186.02 192.47 186.02Q191.13 186.02 190.35 186.86Q189.57 187.70 189.57 189.24" fill="white" fill-opacity="0.7"/>
<path d="M212.92 197.64L201.64 197.64L201.64 195.67L206.32 195.67L206.32 186.41L202.12 186.41L202.12 184.44L208.48 184.44L208.48 195.67L212.92 195.67L212.92 197.64M207.16 182.06Q206.37 182.06 205.91 181.66Q205.46 181.25 205.46 180.55Q205.46 179.83 205.91 179.41Q206.37 178.99 207.16 178.99Q207.95 178.99 208.41 179.41Q208.86 179.83 208.86 180.55Q208.86 181.25 208.41 181.66Q207.95 182.06 207.16 182.06" fill="white" fill-opacity="0.7"/>
<path d="M218.37 197.64L216.21 197.64L216.21 184.44L218.37 184.44L218.37 186.96L218.39 186.96Q218.56 185.64 219.47 184.92Q220.38 184.20 221.90 184.20Q223.89 184.20 225.06 185.42Q226.24 186.65 226.24 188.76L226.24 197.64L224.08 197.64L224.08 189.14Q224.08 187.63 223.32 186.83Q222.57 186.02 221.27 186.02Q219.93 186.02 219.15 186.86Q218.37 187.70 218.37 189.24" fill="white" fill-opacity="0.7"/>
<path d="M235.96 201.96L232.26 201.96L232.26 199.99L235.98 199.99Q237.11 199.99 237.76 199.36Q238.41 198.72 238.41 197.64L238.41 196.44L238.46 194.28L238.38 194.28Q238.19 195.46 237.26 196.09Q236.32 196.73 234.90 196.73Q232.86 196.73 231.69 195.43Q230.51 194.14 230.51 191.88L230.51 189.10Q230.51 186.84 231.69 185.52Q232.86 184.20 234.90 184.20Q236.32 184.20 237.26 184.87Q238.19 185.54 238.38 186.72L238.43 186.72L238.43 184.44L240.57 184.44L240.57 197.64Q240.57 199.63 239.33 200.80Q238.10 201.96 235.96 201.96M235.55 194.93Q236.90 194.93 237.66 194.09Q238.43 193.25 238.43 191.76L238.43 189.24Q238.43 187.75 237.66 186.91Q236.90 186.07 235.55 186.07Q234.18 186.07 233.43 186.86Q232.67 187.66 232.67 189L232.67 192Q232.67 193.34 233.43 194.14Q234.18 194.93 235.55 194.93" fill="white" fill-opacity="0.7"/>
<path d="M260.61 197.64L258.40 197.64L262.96 180.12L265.86 180.12L270.40 197.64L268.22 197.64L267.06 192.98L261.76 192.98L260.61 197.64M263.54 185.74L262.19 191.16L266.61 191.16L265.26 185.76Q264.88 184.22 264.66 183.19Q264.45 182.16 264.40 181.85Q264.35 182.16 264.14 183.19Q263.92 184.22 263.54 185.74" fill="white" fill-opacity="0.7"/>
<path d="M275.97 197.64L273.81 197.64L273.81 180.12L279.45 180.12Q281.90 180.12 283.35 181.52Q284.80 182.93 284.80 185.28Q284.80 187.63 283.35 189.04Q281.90 190.44 279.45 190.44L275.97 190.44L275.97 197.64M275.97 182.06L275.97 188.50L279.45 188.50Q280.86 188.50 281.72 187.62Q282.57 186.74 282.57 185.28Q282.57 183.79 281.72 182.93Q280.86 182.06 279.45 182.06" fill="white" fill-opacity="0.7"/>
<path d="M297.88 197.64L288.52 197.64L288.52 195.67L292.10 195.67L292.10 182.09L288.52 182.09L288.52 180.12L297.88 180.12L297.88 182.09L294.30 182.09L294.30 195.67L297.88 195.67" fill="white" fill-opacity="0.7"/>
<path d="M322 197.88Q319.67 197.88 318.24 196.48Q316.82 195.07 316.82 192.60L316.82 189.48Q316.82 187.01 318.24 185.60Q319.67 184.20 322 184.20Q323.56 184.20 324.72 184.82Q325.89 185.45 326.54 186.58Q327.18 187.70 327.18 189.24L327.18 191.59L318.93 191.59L318.93 192.84Q318.93 194.30 319.77 195.16Q320.61 196.01 322 196.01Q323.20 196.01 323.98 195.54Q324.76 195.07 324.93 194.28L327.09 194.28Q326.87 195.94 325.48 196.91Q324.09 197.88 322 197.88M318.93 189.24L318.93 189.91L325.07 189.91L325.07 189.24Q325.07 187.68 324.27 186.83Q323.46 185.98 322 185.98Q320.54 185.98 319.73 186.83Q318.93 187.68 318.93 189.24" fill="white" fill-opacity="0.7"/>
<path d="M333.57 197.64L331.41 197.64L331.41 184.44L333.57 184.44L333.57 186.96L333.59 186.96Q333.76 185.64 334.67 184.92Q335.58 184.20 337.10 184.20Q339.09 184.20 340.26 185.42Q341.44 186.65 341.44 188.76L341.44 197.64L339.28 197.64L339.28 189.14Q339.28 187.63 338.52 186.83Q337.77 186.02 336.47 186.02Q335.13 186.02 334.35 186.86Q333.57 187.70 333.57 189.24" fill="white" fill-opacity="0.7"/>
<path d="M349.65 197.88Q347.61 197.88 346.41 196.74Q345.21 195.60 345.21 193.75Q345.21 192.53 345.76 191.62Q346.31 190.70 347.30 190.19Q348.28 189.67 349.55 189.67L353.63 189.67L353.63 188.64Q353.63 186.07 350.82 186.07Q349.58 186.07 348.81 186.53Q348.04 186.98 347.99 187.80L345.83 187.80Q345.95 186.24 347.28 185.22Q348.62 184.20 350.82 184.20Q353.22 184.20 354.51 185.35Q355.79 186.50 355.79 188.57L355.79 197.64L353.66 197.64L353.66 195.24L353.61 195.24Q353.42 196.46 352.38 197.17Q351.35 197.88 349.65 197.88M350.18 196.06Q351.76 196.06 352.70 195.29Q353.63 194.52 353.63 193.20L353.63 191.35L349.79 191.35Q348.74 191.35 348.08 191.99Q347.42 192.62 347.42 193.68Q347.42 194.78 348.15 195.42Q348.88 196.06 350.18 196.06" fill="white" fill-opacity="0.7"/>
<path d="M365.97 197.88Q364.48 197.88 363.52 197.15Q362.56 196.42 362.39 195.12L362.37 195.12L362.37 197.64L360.21 197.64L360.21 180.12L362.37 180.12L362.37 183.96L362.32 186.96L362.34 186.96Q362.54 185.69 363.51 184.94Q364.48 184.20 365.97 184.20Q367.96 184.20 369.14 185.52Q370.31 186.84 370.31 189.12L370.31 192.98Q370.31 195.24 369.14 196.56Q367.96 197.88 365.97 197.88M365.25 196.01Q366.62 196.01 367.38 195.29Q368.15 194.57 368.15 192.96L368.15 189.12Q368.15 187.49 367.38 186.78Q366.62 186.07 365.25 186.07Q363.93 186.07 363.15 186.91Q362.37 187.75 362.37 189.24L362.37 192.84Q362.37 194.33 363.15 195.17Q363.93 196.01 365.25 196.01" fill="white" fill-opacity="0.7"/>
<path d="M385.60 197.64L381.52 197.64Q379.77 197.64 378.72 196.62Q377.68 195.60 377.68 193.92L377.68 182.09L373.12 182.09L373.12 180.12L379.84 180.12L379.84 193.92Q379.84 194.74 380.30 195.20Q380.75 195.67 381.52 195.67L385.60 195.67" fill="white" fill-opacity="0.7"/>
<path d="M394 197.88Q391.67 197.88 390.24 196.48Q388.82 195.07 388.82 192.60L388.82 189.48Q388.82 187.01 390.24 185.60Q391.67 184.20 394 184.20Q395.56 184.20 396.72 184.82Q397.89 185.45 398.54 186.58Q399.18 187.70 399.18 189.24L399.18 191.59L390.93 191.59L390.93 192.84Q390.93 194.30 391.77 195.16Q392.61 196.01 394 196.01Q395.20 196.01 395.98 195.54Q396.76 195.07 396.93 194.28L399.09 194.28Q398.87 195.94 397.48 196.91Q396.09 197.88 394 197.88M390.93 189.24L390.93 189.91L397.07 189.91L397.07 189.24Q397.07 187.68 396.27 186.83Q395.46 185.98 394 185.98Q392.54 185.98 391.73 186.83Q390.93 187.68 390.93 189.24" fill="white" fill-opacity="0.7"/>
<path d="M408.93 197.83L407.87 197.83Q405.66 197.83 404.45 196.84Q403.24 195.84 403.24 194.02L405.40 194.02Q405.40 194.93 406.05 195.44Q406.70 195.96 407.87 195.96L408.93 195.96Q410.13 195.96 410.79 195.43Q411.45 194.90 411.45 193.94Q411.45 192.24 409.89 192.02L406.24 191.50Q404.90 191.30 404.15 190.38Q403.41 189.46 403.41 187.94Q403.41 186.22 404.60 185.23Q405.78 184.25 407.87 184.25L408.93 184.25Q410.85 184.25 412.06 185.20Q413.27 186.14 413.37 187.68L411.18 187.68Q411.14 186.98 410.52 186.53Q409.91 186.07 408.93 186.07L407.87 186.07Q406.77 186.07 406.14 186.58Q405.52 187.08 405.52 187.94Q405.52 189.34 406.79 189.53L410.20 190.01Q413.56 190.49 413.56 193.94Q413.56 195.79 412.35 196.81Q411.14 197.83 408.93 197.83" fill="white" fill-opacity="0.7"/>
<path d="M436.43 197.88Q434.46 197.88 433.28 196.56Q432.09 195.24 432.09 192.98L432.09 189.12Q432.09 186.84 433.26 185.52Q434.44 184.20 436.43 184.20Q437.92 184.20 438.89 184.94Q439.86 185.69 440.06 186.96L440.08 186.96L440.03 183.96L440.03 180.12L442.19 180.12L442.19 197.64L440.03 197.64L440.03 195.12L440.01 195.12Q439.84 196.42 438.88 197.15Q437.92 197.88 436.43 197.88M437.15 196.01Q438.50 196.01 439.26 195.17Q440.03 194.33 440.03 192.84L440.03 189.24Q440.03 187.75 439.26 186.91Q438.50 186.07 437.15 186.07Q435.78 186.07 435.02 186.78Q434.25 187.49 434.25 189.12L434.25 192.96Q434.25 194.57 435.02 195.29Q435.78 196.01 437.15 196.01" fill="white" fill-opacity="0.7"/>
<path d="M451.60 197.88Q449.27 197.88 447.84 196.48Q446.42 195.07 446.42 192.60L446.42 189.48Q446.42 187.01 447.84 185.60Q449.27 184.20 451.60 184.20Q453.16 184.20 454.32 184.82Q455.49 185.45 456.14 186.58Q456.78 187.70 456.78 189.24L456.78 191.59L448.53 191.59L448.53 192.84Q448.53 194.30 449.37 195.16Q450.21 196.01 451.60 196.01Q452.80 196.01 453.58 195.54Q454.36 195.07 454.53 194.28L456.69 194.28Q456.47 195.94 455.08 196.91Q453.69 197.88 451.60 197.88M448.53 189.24L448.53 189.91L454.67 189.91L454.67 189.24Q454.67 187.68 453.87 186.83Q453.06 185.98 451.60 185.98Q450.14 185.98 449.33 186.83Q448.53 187.68 448.53 189.24" fill="white" fill-opacity="0.7"/>
<path d="M467.42 197.64L464.58 197.64L460.10 184.44L462.42 184.44L465.30 193.32Q465.57 194.11 465.76 194.84Q465.95 195.58 466.05 195.98Q466.17 195.58 466.34 194.84Q466.50 194.11 466.74 193.32L469.62 184.44L471.90 184.44" fill="white" fill-opacity="0.7"/>
<path d="M480.40 197.88Q478.07 197.88 476.64 196.48Q475.22 195.07 475.22 192.60L475.22 189.48Q475.22 187.01 476.64 185.60Q478.07 184.20 480.40 184.20Q481.96 184.20 483.12 184.82Q484.29 185.45 484.94 186.58Q485.58 187.70 485.58 189.24L485.58 191.59L477.33 191.59L477.33 192.84Q477.33 194.30 478.17 195.16Q479.01 196.01 480.40 196.01Q481.60 196.01 482.38 195.54Q483.16 195.07 483.33 194.28L485.49 194.28Q485.27 195.94 483.88 196.91Q482.49 197.88 480.40 197.88M477.33 189.24L477.33 189.91L483.47 189.91L483.47 189.24Q483.47 187.68 482.67 186.83Q481.86 185.98 480.40 185.98Q478.94 185.98 478.13 186.83Q477.33 187.68 477.33 189.24" fill="white" fill-opacity="0.7"/>
<path d="M500.80 197.64L496.72 197.64Q494.97 197.64 493.92 196.62Q492.88 195.60 492.88 193.92L492.88 182.09L488.32 182.09L488.32 180.12L495.04 180.12L495.04 193.92Q495.04 194.74 495.50 195.20Q495.95 195.67 496.72 195.67L500.80 195.67" fill="white" fill-opacity="0.7"/>
<path d="M509.20 197.83Q506.82 197.83 505.42 196.44Q504.02 195.05 504.02 192.55L504.02 189.53Q504.02 187.01 505.41 185.63Q506.80 184.25 509.20 184.25Q511.60 184.25 512.99 185.63Q514.38 187.01 514.38 189.53L514.38 192.55Q514.38 195.05 512.98 196.44Q511.58 197.83 509.20 197.83M509.20 195.91Q510.62 195.91 511.42 195.12Q512.22 194.33 512.22 192.79L512.22 189.29Q512.22 187.75 511.42 186.96Q510.62 186.17 509.20 186.17Q507.81 186.17 506.99 186.96Q506.18 187.75 506.18 189.29L506.18 192.79Q506.18 194.33 506.99 195.12Q507.81 195.91 509.20 195.91" fill="white" fill-opacity="0.7"/>
<path d="M520.77 201.96L518.61 201.96L518.61 184.44L520.77 184.44L520.77 186.96L520.79 186.96Q520.96 185.66 521.92 184.93Q522.88 184.20 524.37 184.20Q526.36 184.20 527.54 185.51Q528.71 186.82 528.71 189.10L528.71 192.96Q528.71 195.24 527.54 196.56Q526.36 197.88 524.37 197.88Q522.88 197.88 521.92 197.14Q520.96 196.39 520.79 195.12L520.72 195.12L520.77 198.12L520.77 201.96M523.65 196.01Q525.02 196.01 525.78 195.29Q526.55 194.57 526.55 192.96L526.55 189.12Q526.55 187.49 525.78 186.78Q525.02 186.07 523.65 186.07Q522.33 186.07 521.55 186.91Q520.77 187.75 520.77 189.24L520.77 192.84Q520.77 194.33 521.55 195.17Q522.33 196.01 523.65 196.01" fill="white" fill-opacity="0.7"/>
<path d="M538 197.88Q535.67 197.88 534.24 196.48Q532.82 195.07 532.82 192.60L532.82 189.48Q532.82 187.01 534.24 185.60Q535.67 184.20 538 184.20Q539.56 184.20 540.72 184.82Q541.89 185.45 542.54 186.58Q543.18 187.70 543.18 189.24L543.18 191.59L534.93 191.59L534.93 192.84Q534.93 194.30 535.77 195.16Q536.61 196.01 538 196.01Q539.20 196.01 539.98 195.54Q540.76 195.07 540.93 194.28L543.09 194.28Q542.87 195.94 541.48 196.91Q540.09 197.88 538 197.88M534.93 189.24L534.93 189.91L541.07 189.91L541.07 189.24Q541.07 187.68 540.27 186.83Q539.46 185.98 538 185.98Q536.54 185.98 535.73 186.83Q534.93 187.68 534.93 189.24" fill="white" fill-opacity="0.7"/>
<path d="M550.05 197.64L547.89 197.64L547.89 184.44L550.05 184.44L550.05 186.96L550.10 186.96Q550.26 185.69 551.18 184.94Q552.09 184.20 553.62 184.20Q555.69 184.20 556.80 185.44Q557.92 186.67 557.92 188.95L557.92 190.08L555.76 190.08L555.76 188.95Q555.76 186.07 552.95 186.07Q551.54 186.07 550.79 186.89Q550.05 187.70 550.05 189.24" fill="white" fill-opacity="0.7"/>
<path d="M567.33 197.83L566.27 197.83Q564.06 197.83 562.85 196.84Q561.64 195.84 561.64 194.02L563.80 194.02Q563.80 194.93 564.45 195.44Q565.10 195.96 566.27 195.96L567.33 195.96Q568.53 195.96 569.19 195.43Q569.85 194.90 569.85 193.94Q569.85 192.24 568.29 192.02L564.64 191.50Q563.30 191.30 562.55 190.38Q561.81 189.46 561.81 187.94Q561.81 186.22 563 185.23Q564.18 184.25 566.27 184.25L567.33 184.25Q569.25 184.25 570.46 185.20Q571.67 186.14 571.77 187.68L569.58 187.68Q569.54 186.98 568.92 186.53Q568.31 186.07 567.33 186.07L566.27 186.07Q565.17 186.07 564.54 186.58Q563.92 187.08 563.92 187.94Q563.92 189.34 565.19 189.53L568.60 190.01Q571.96 190.49 571.96 193.94Q571.96 195.79 570.75 196.81Q569.54 197.83 567.33 197.83" fill="white" fill-opacity="0.7"/>
<path d="M600.76 197.64L596.92 197.64Q595.29 197.64 594.30 196.69Q593.32 195.74 593.32 194.16L593.32 186.41L589.53 186.41L589.53 184.44L593.32 184.44L593.32 180.72L595.48 180.72L595.48 184.44L600.88 184.44L600.88 186.41L595.48 186.41L595.48 194.16Q595.48 194.83 595.88 195.25Q596.27 195.67 596.92 195.67L600.76 195.67" fill="white" fill-opacity="0.7"/>
<path d="M610 197.83Q607.62 197.83 606.22 196.44Q604.82 195.05 604.82 192.55L604.82 189.53Q604.82 187.01 606.21 185.63Q607.60 184.25 610 184.25Q612.40 184.25 613.79 185.63Q615.18 187.01 615.18 189.53L615.18 192.55Q615.18 195.05 613.78 196.44Q612.38 197.83 610 197.83M610 195.91Q611.42 195.91 612.22 195.12Q613.02 194.33 613.02 192.79L613.02 189.29Q613.02 187.75 612.22 186.96Q611.42 186.17 610 186.17Q608.61 186.17 607.79 186.96Q606.98 187.75 606.98 189.29L606.98 192.79Q606.98 194.33 607.79 195.12Q608.61 195.91 610 195.91" fill="white" fill-opacity="0.7"/>
<path d="M644.92 197.64L633.64 197.64L633.64 195.67L638.32 195.67L638.32 186.41L634.12 186.41L634.12 184.44L640.48 184.44L640.48 195.67L644.92 195.67L644.92 197.64M639.16 182.06Q638.37 182.06 637.91 181.66Q637.46 181.25 637.46 180.55Q637.46 179.83 637.91 179.41Q638.37 178.99 639.16 178.99Q639.95 178.99 640.41 179.41Q640.86 179.83 640.86 180.55Q640.86 181.25 640.41 181.66Q639.95 182.06 639.16 182.06" fill="white" fill-opacity="0.7"/>
<path d="M650.37 197.64L648.21 197.64L648.21 184.44L650.37 184.44L650.37 186.96L650.39 186.96Q650.56 185.64 651.47 184.92Q652.38 184.20 653.90 184.20Q655.89 184.20 657.06 185.42Q658.24 186.65 658.24 188.76L658.24 197.64L656.08 197.64L656.08 189.14Q656.08 187.63 655.32 186.83Q654.57 186.02 653.27 186.02Q651.93 186.02 651.15 186.86Q650.37 187.70 650.37 189.24" fill="white" fill-opacity="0.7"/>
<path d="M672.76 197.64L668.92 197.64Q667.29 197.64 666.30 196.69Q665.32 195.74 665.32 194.16L665.32 186.41L661.53 186.41L661.53 184.44L665.32 184.44L665.32 180.72L667.48 180.72L667.48 184.44L672.88 184.44L672.88 186.41L667.48 186.41L667.48 194.16Q667.48 194.83 667.88 195.25Q668.27 195.67 668.92 195.67L672.76 195.67" fill="white" fill-opacity="0.7"/>
<path d="M682 197.88Q679.67 197.88 678.24 196.48Q676.82 195.07 676.82 192.60L676.82 189.48Q676.82 187.01 678.24 185.60Q679.67 184.20 682 184.20Q683.56 184.20 684.72 184.82Q685.89 185.45 686.54 186.58Q687.18 187.70 687.18 189.24L687.18 191.59L678.93 191.59L678.93 192.84Q678.93 194.30 679.77 195.16Q680.61 196.01 682 196.01Q683.20 196.01 683.98 195.54Q684.76 195.07 684.93 194.28L687.09 194.28Q686.87 195.94 685.48 196.91Q684.09 197.88 682 197.88M678.93 189.24L678.93 189.91L685.07 189.91L685.07 189.24Q685.07 187.68 684.27 186.83Q683.46 185.98 682 185.98Q680.54 185.98 679.73 186.83Q678.93 187.68 678.93 189.24" fill="white" fill-opacity="0.7"/>
<path d="M696.76 201.96L693.06 201.96L693.06 199.99L696.78 199.99Q697.91 199.99 698.56 199.36Q699.21 198.72 699.21 197.64L699.21 196.44L699.26 194.28L699.18 194.28Q698.99 195.46 698.06 196.09Q697.12 196.73 695.70 196.73Q693.66 196.73 692.49 195.43Q691.31 194.14 691.31 191.88L691.31 189.10Q691.31 186.84 692.49 185.52Q693.66 184.20 695.70 184.20Q697.12 184.20 698.06 184.87Q698.99 185.54 699.18 186.72L699.23 186.72L699.23 184.44L701.37 184.44L701.37 197.64Q701.37 199.63 700.13 200.80Q698.90 201.96 696.76 201.96M696.35 194.93Q697.70 194.93 698.46 194.09Q699.23 193.25 699.23 191.76L699.23 189.24Q699.23 187.75 698.46 186.91Q697.70 186.07 696.35 186.07Q694.98 186.07 694.23 186.86Q693.47 187.66 693.47 189L693.47 192Q693.47 193.34 694.23 194.14Q694.98 194.93 696.35 194.93" fill="white" fill-opacity="0.7"/>
<path d="M708.45 197.64L706.29 197.64L706.29 184.44L708.45 184.44L708.45 186.96L708.50 186.96Q708.66 185.69 709.58 184.94Q710.49 184.20 712.02 184.20Q714.09 184.20 715.20 185.44Q716.32 186.67 716.32 188.95L716.32 190.08L714.16 190.08L714.16 188.95Q714.16 186.07 711.35 186.07Q709.94 186.07 709.19 186.89Q708.45 187.70 708.45 189.24" fill="white" fill-opacity="0.7"/>
<path d="M724.05 197.88Q722.01 197.88 720.81 196.74Q719.61 195.60 719.61 193.75Q719.61 192.53 720.16 191.62Q720.71 190.70 721.70 190.19Q722.68 189.67 723.95 189.67L728.03 189.67L728.03 188.64Q728.03 186.07 725.22 186.07Q723.98 186.07 723.21 186.53Q722.44 186.98 722.39 187.80L720.23 187.80Q720.35 186.24 721.68 185.22Q723.02 184.20 725.22 184.20Q727.62 184.20 728.91 185.35Q730.19 186.50 730.19 188.57L730.19 197.64L728.06 197.64L728.06 195.24L728.01 195.24Q727.82 196.46 726.78 197.17Q725.75 197.88 724.05 197.88M724.58 196.06Q726.16 196.06 727.10 195.29Q728.03 194.52 728.03 193.20L728.03 191.35L724.19 191.35Q723.14 191.35 722.48 191.99Q721.82 192.62 721.82 193.68Q721.82 194.78 722.55 195.42Q723.28 196.06 724.58 196.06" fill="white" fill-opacity="0.7"/>
<path d="M744.76 197.64L740.92 197.64Q739.29 197.64 738.30 196.69Q737.32 195.74 737.32 194.16L737.32 186.41L733.53 186.41L733.53 184.44L737.32 184.44L737.32 180.72L739.48 180.72L739.48 184.44L744.88 184.44L744.88 186.41L739.48 186.41L739.48 194.16Q739.48 194.83 739.88 195.25Q740.27 195.67 740.92 195.67L744.76 195.67" fill="white" fill-opacity="0.7"/>
<path d="M754 197.88Q751.67 197.88 750.24 196.48Q748.82 195.07 748.82 192.60L748.82 189.48Q748.82 187.01 750.24 185.60Q751.67 184.20 754 184.20Q755.56 184.20 756.72 184.82Q757.89 185.45 758.54 186.58Q759.18 187.70 759.18 189.24L759.18 191.59L750.93 191.59L750.93 192.84Q750.93 194.30 751.77 195.16Q752.61 196.01 754 196.01Q755.20 196.01 755.98 195.54Q756.76 195.07 756.93 194.28L759.09 194.28Q758.87 195.94 757.48 196.91Q756.09 197.88 754 197.88M750.93 189.24L750.93 189.91L757.07 189.91L757.07 189.24Q757.07 187.68 756.27 186.83Q755.46 185.98 754 185.98Q752.54 185.98 751.73 186.83Q750.93 187.68 750.93 189.24" fill="white" fill-opacity="0.7"/>
<path d="M782.80 197.83Q780.42 197.83 779.02 196.44Q777.62 195.05 777.62 192.55L777.62 189.53Q777.62 187.01 779.01 185.63Q780.40 184.25 782.80 184.25Q785.20 184.25 786.59 185.63Q787.98 187.01 787.98 189.53L787.98 192.55Q787.98 195.05 786.58 196.44Q785.18 197.83 782.80 197.83M782.80 195.91Q784.22 195.91 785.02 195.12Q785.82 194.33 785.82 192.79L785.82 189.29Q785.82 187.75 785.02 186.96Q784.22 186.17 782.80 186.17Q781.41 186.17 780.59 186.96Q779.78 187.75 779.78 189.29L779.78 192.79Q779.78 194.33 780.59 195.12Q781.41 195.91 782.80 195.91" fill="white" fill-opacity="0.7"/>
<path d="M794.37 197.64L792.21 197.64L792.21 184.44L794.37 184.44L794.37 186.96L794.39 186.96Q794.56 185.64 795.47 184.92Q796.38 184.20 797.90 184.20Q799.89 184.20 801.06 185.42Q802.24 186.65 802.24 188.76L802.24 197.64L800.08 197.64L800.08 189.14Q800.08 187.63 799.32 186.83Q798.57 186.02 797.27 186.02Q795.93 186.02 795.15 186.86Q794.37 187.70 794.37 189.24" fill="white" fill-opacity="0.7"/>
<path d="M817.60 197.64L813.52 197.64Q811.77 197.64 810.72 196.62Q809.68 195.60 809.68 193.92L809.68 182.09L805.12 182.09L805.12 180.12L811.84 180.12L811.84 193.92Q811.84 194.74 812.30 195.20Q812.75 195.67 813.52 195.67L817.60 195.67" fill="white" fill-opacity="0.7"/>
<path d="M832.12 197.64L820.84 197.64L820.84 195.67L825.52 195.67L825.52 186.41L821.32 186.41L821.32 184.44L827.68 184.44L827.68 195.67L832.12 195.67L832.12 197.64M826.36 182.06Q825.57 182.06 825.11 181.66Q824.66 181.25 824.66 180.55Q824.66 179.83 825.11 179.41Q825.57 178.99 826.36 178.99Q827.15 178.99 827.61 179.41Q828.06 179.83 828.06 180.55Q828.06 181.25 827.61 181.66Q827.15 182.06 826.36 182.06" fill="white" fill-opacity="0.7"/>
<path d="M837.57 197.64L835.41 197.64L835.41 184.44L837.57 184.44L837.57 186.96L837.59 186.96Q837.76 185.64 838.67 184.92Q839.58 184.20 841.10 184.20Q843.09 184.20 844.26 185.42Q845.44 186.65 845.44 188.76L845.44 197.64L843.28 197.64L843.28 189.14Q843.28 187.63 842.52 186.83Q841.77 186.02 840.47 186.02Q839.13 186.02 838.35 186.86Q837.57 187.70 837.57 189.24" fill="white" fill-opacity="0.7"/>
<path d="M854.80 197.88Q852.47 197.88 851.04 196.48Q849.62 195.07 849.62 192.60L849.62 189.48Q849.62 187.01 851.04 185.60Q852.47 184.20 854.80 184.20Q856.36 184.20 857.52 184.82Q858.69 185.45 859.34 186.58Q859.98 187.70 859.98 189.24L859.98 191.59L851.73 191.59L851.73 192.84Q851.73 194.30 852.57 195.16Q853.41 196.01 854.80 196.01Q856 196.01 856.78 195.54Q857.56 195.07 857.73 194.28L859.89 194.28Q859.67 195.94 858.28 196.91Q856.89 197.88 854.80 197.88M851.73 189.24L851.73 189.91L857.87 189.91L857.87 189.24Q857.87 187.68 857.07 186.83Q856.26 185.98 854.80 185.98Q853.34 185.98 852.53 186.83Q851.73 187.68 851.73 189.24" fill="white" fill-opacity="0.7"/>
<path d="M888.76 197.64L884.92 197.64Q883.29 197.64 882.30 196.69Q881.32 195.74 881.32 194.16L881.32 186.41L877.53 186.41L877.53 184.44L881.32 184.44L881.32 180.72L883.48 180.72L883.48 184.44L888.88 184.44L888.88 186.41L883.48 186.41L883.48 194.16Q883.48 194.83 883.88 195.25Q884.27 195.67 884.92 195.67L888.76 195.67" fill="white" fill-opacity="0.7"/>
<path d="M895.65 197.64L893.49 197.64L893.49 184.44L895.65 184.44L895.65 186.96L895.70 186.96Q895.86 185.69 896.78 184.94Q897.69 184.20 899.22 184.20Q901.29 184.20 902.40 185.44Q903.52 186.67 903.52 188.95L903.52 190.08L901.36 190.08L901.36 188.95Q901.36 186.07 898.55 186.07Q897.14 186.07 896.39 186.89Q895.65 187.70 895.65 189.24" fill="white" fill-opacity="0.7"/>
<path d="M911.25 197.88Q909.21 197.88 908.01 196.74Q906.81 195.60 906.81 193.75Q906.81 192.53 907.36 191.62Q907.91 190.70 908.90 190.19Q909.88 189.67 911.15 189.67L915.23 189.67L915.23 188.64Q915.23 186.07 912.42 186.07Q911.18 186.07 910.41 186.53Q909.64 186.98 909.59 187.80L907.43 187.80Q907.55 186.24 908.88 185.22Q910.22 184.20 912.42 184.20Q914.82 184.20 916.11 185.35Q917.39 186.50 917.39 188.57L917.39 197.64L915.26 197.64L915.26 195.24L915.21 195.24Q915.02 196.46 913.98 197.17Q912.95 197.88 911.25 197.88M911.78 196.06Q913.36 196.06 914.30 195.29Q915.23 194.52 915.23 193.20L915.23 191.35L911.39 191.35Q910.34 191.35 909.68 191.99Q909.02 192.62 909.02 193.68Q909.02 194.78 909.75 195.42Q910.48 196.06 911.78 196.06" fill="white" fill-opacity="0.7"/>
<path d="M932.92 197.64L921.64 197.64L921.64 195.67L926.32 195.67L926.32 186.41L922.12 186.41L922.12 184.44L928.48 184.44L928.48 195.67L932.92 195.67L932.92 197.64M927.16 182.06Q926.37 182.06 925.91 181.66Q925.46 181.25 925.46 180.55Q925.46 179.83 925.91 179.41Q926.37 178.99 927.16 178.99Q927.95 178.99 928.41 179.41Q928.86 179.83 928.86 180.55Q928.86 181.25 928.41 181.66Q927.95 182.06 927.16 182.06" fill="white" fill-opacity="0.7"/>
<path d="M938.37 197.64L936.21 197.64L936.21 184.44L938.37 184.44L938.37 186.96L938.39 186.96Q938.56 185.64 939.47 184.92Q940.38 184.20 941.90 184.20Q943.89 184.20 945.06 185.42Q946.24 186.65 946.24 188.76L946.24 197.64L944.08 197.64L944.08 189.14Q944.08 187.63 943.32 186.83Q942.57 186.02 941.27 186.02Q939.93 186.02 939.15 186.86Q938.37 187.70 938.37 189.24" fill="white" fill-opacity="0.7"/>
<path d="M961.72 197.64L950.44 197.64L950.44 195.67L955.12 195.67L955.12 186.41L950.92 186.41L950.92 184.44L957.28 184.44L957.28 195.67L961.72 195.67L961.72 197.64M955.96 182.06Q955.17 182.06 954.71 181.66Q954.26 181.25 954.26 180.55Q954.26 179.83 954.71 179.41Q955.17 178.99 955.96 178.99Q956.75 178.99 957.21 179.41Q957.66 179.83 957.66 180.55Q957.66 181.25 957.21 181.66Q956.75 182.06 955.96 182.06" fill="white" fill-opacity="0.7"/>
<path d="M967.17 197.64L965.01 197.64L965.01 184.44L967.17 184.44L967.17 186.96L967.19 186.96Q967.36 185.64 968.27 184.92Q969.18 184.20 970.70 184.20Q972.69 184.20 973.86 185.42Q975.04 186.65 975.04 188.76L975.04 197.64L972.88 197.64L972.88 189.14Q972.88 187.63 972.12 186.83Q971.37 186.02 970.07 186.02Q968.73 186.02 967.95 186.86Q967.17 187.70 967.17 189.24" fill="white" fill-opacity="0.7"/>
<path d="M984.76 201.96L981.06 201.96L981.06 199.99L984.78 199.99Q985.91 199.99 986.56 199.36Q987.21 198.72 987.21 197.64L987.21 196.44L987.26 194.28L987.18 194.28Q986.99 195.46 986.06 196.09Q985.12 196.73 983.70 196.73Q981.66 196.73 980.49 195.43Q979.31 194.14 979.31 191.88L979.31 189.10Q979.31 186.84 980.49 185.52Q981.66 184.20 983.70 184.20Q985.12 184.20 986.06 184.87Q986.99 185.54 987.18 186.72L987.23 186.72L987.23 184.44L989.37 184.44L989.37 197.64Q989.37 199.63 988.13 200.80Q986.90 201.96 984.76 201.96M984.35 194.93Q985.70 194.93 986.46 194.09Q987.23 193.25 987.23 191.76L987.23 189.24Q987.23 187.75 986.46 186.91Q985.70 186.07 984.35 186.07Q982.98 186.07 982.23 186.86Q981.47 187.66 981.47 189L981.47 192Q981.47 193.34 982.23 194.14Q982.98 194.93 984.35 194.93" fill="white" fill-opacity="0.7"/>
<path d="M1019.32 197.64L1008.04 197.64L1008.04 195.67L1012.72 195.67L1012.72 186.41L1008.52 186.41L1008.52 184.44L1014.88 184.44L1014.88 195.67L1019.32 195.67L1019.32 197.64M1013.56 182.06Q1012.77 182.06 1012.31 181.66Q1011.86 181.25 1011.86 180.55Q1011.86 179.83 1012.31 179.41Q1012.77 178.99 1013.56 178.99Q1014.35 178.99 1014.81 179.41Q1015.26 179.83 1015.26 180.55Q1015.26 181.25 1014.81 181.66Q1014.35 182.06 1013.56 182.06" fill="white" fill-opacity="0.7"/>
<path d="M1024.77 197.64L1022.61 197.64L1022.61 184.44L1024.77 184.44L1024.77 186.96L1024.79 186.96Q1024.96 185.64 1025.87 184.92Q1026.78 184.20 1028.30 184.20Q1030.29 184.20 1031.46 185.42Q1032.64 186.65 1032.64 188.76L1032.64 197.64L1030.48 197.64L1030.48 189.14Q1030.48 187.63 1029.72 186.83Q1028.97 186.02 1027.67 186.02Q1026.33 186.02 1025.55 186.86Q1024.77 187.70 1024.77 189.24" fill="white" fill-opacity="0.7"/>
<path d="M1047.16 197.64L1043.32 197.64Q1041.69 197.64 1040.70 196.69Q1039.72 195.74 1039.72 194.16L1039.72 186.41L1035.93 186.41L1035.93 184.44L1039.72 184.44L1039.72 180.72L1041.88 180.72L1041.88 184.44L1047.28 184.44L1047.28 186.41L1041.88 186.41L1041.88 194.16Q1041.88 194.83 1042.28 195.25Q1042.67 195.67 1043.32 195.67L1047.16 195.67" fill="white" fill-opacity="0.7"/>
<path d="M1056.40 197.83Q1054.02 197.83 1052.62 196.44Q1051.22 195.05 1051.22 192.55L1051.22 189.53Q1051.22 187.01 1052.61 185.63Q1054 184.25 1056.40 184.25Q1058.80 184.25 1060.19 185.63Q1061.58 187.01 1061.58 189.53L1061.58 192.55Q1061.58 195.05 1060.18 196.44Q1058.78 197.83 1056.40 197.83M1056.40 195.91Q1057.82 195.91 1058.62 195.12Q1059.42 194.33 1059.42 192.79L1059.42 189.29Q1059.42 187.75 1058.62 186.96Q1057.82 186.17 1056.40 186.17Q1055.01 186.17 1054.19 186.96Q1053.38 187.75 1053.38 189.29L1053.38 192.79Q1053.38 194.33 1054.19 195.12Q1055.01 195.91 1056.40 195.91" fill="white" fill-opacity="0.7"/>
<path d="M74.37 233.96L72.21 233.96L72.21 216.44L74.37 216.44L74.37 218.96L74.39 218.96Q74.56 217.66 75.52 216.93Q76.48 216.20 77.97 216.20Q79.96 216.20 81.14 217.51Q82.31 218.82 82.31 221.10L82.31 224.96Q82.31 227.24 81.14 228.56Q79.96 229.88 77.97 229.88Q76.48 229.88 75.52 229.14Q74.56 228.39 74.39 227.12L74.32 227.12L74.37 230.12L74.37 233.96M77.25 228.01Q78.62 228.01 79.38 227.29Q80.15 226.57 80.15 224.96L80.15 221.12Q80.15 219.49 79.38 218.78Q78.62 218.07 77.25 218.07Q75.93 218.07 75.15 218.91Q74.37 219.75 74.37 221.24L74.37 224.84Q74.37 226.33 75.15 227.17Q75.93 228.01 77.25 228.01" fill="white" fill-opacity="0.7"/>
<path d="M89.25 229.64L87.09 229.64L87.09 216.44L89.25 216.44L89.25 218.96L89.30 218.96Q89.46 217.69 90.38 216.94Q91.29 216.20 92.82 216.20Q94.89 216.20 96 217.44Q97.12 218.67 97.12 220.95L97.12 222.08L94.96 222.08L94.96 220.95Q94.96 218.07 92.15 218.07Q90.74 218.07 89.99 218.89Q89.25 219.70 89.25 221.24" fill="white" fill-opacity="0.7"/>
<path d="MNaN 229.83Q103.62 229.83 102.22 228.44Q100.82 227.05 100.82 224.55L100.82 221.53Q100.82 219.01 102.21 217.63Q103.60 216.25 NaN 216.25Q108.40 216.25 109.79 217.63Q111.18 219.01 111.18 221.53L111.18 224.55Q111.18 227.05 109.78 228.44Q108.38 229.83 NaN 229.83MNaN 227.91Q107.42 227.91 108.22 227.12Q109.02 226.33 109.02 224.79L109.02 221.29Q109.02 219.75 108.22 218.96Q107.42 218.17 NaN 218.17Q104.61 218.17 103.79 218.96Q102.98 219.75 102.98 221.29L102.98 224.79Q102.98 226.33 103.79 227.12Q104.61 227.91 NaN 227.91" fill="white" fill-opacity="0.7"/>
<path d="M117.57 233.96L115.41 233.96L115.41 216.44L117.57 216.44L117.57 218.96L117.59 218.96Q117.76 217.66 118.72 216.93Q119.68 216.20 121.17 216.20Q123.16 216.20 124.34 217.51Q125.51 218.82 125.51 221.10L125.51 224.96Q125.51 227.24 124.34 228.56Q123.16 229.88 121.17 229.88Q119.68 229.88 118.72 229.14Q117.76 228.39 117.59 227.12L117.52 227.12L117.57 230.12L117.57 233.96M120.45 228.01Q121.82 228.01 122.58 227.29Q123.35 226.57 123.35 224.96L123.35 221.12Q123.35 219.49 122.58 218.78Q121.82 218.07 120.45 218.07Q119.13 218.07 118.35 218.91Q117.57 219.75 117.57 221.24L117.57 224.84Q117.57 226.33 118.35 227.17Q119.13 228.01 120.45 228.01" fill="white" fill-opacity="0.7"/>
<path d="M132.45 229.64L130.29 229.64L130.29 216.44L132.45 216.44L132.45 218.96L132.50 218.96Q132.66 217.69 133.58 216.94Q134.49 216.20 136.02 216.20Q138.09 216.20 139.20 217.44Q140.32 218.67 140.32 220.95L140.32 222.08L138.16 222.08L138.16 220.95Q138.16 218.07 135.35 218.07Q133.94 218.07 133.19 218.89Q132.45 219.70 132.45 221.24" fill="white" fill-opacity="0.7"/>
<path d="M155.32 229.64L144.04 229.64L144.04 227.67L148.72 227.67L148.72 218.41L144.52 218.41L144.52 216.44L150.88 216.44L150.88 227.67L155.32 227.67L155.32 229.64M149.56 214.06Q148.77 214.06 148.31 213.66Q147.86 213.25 147.86 212.55Q147.86 211.83 148.31 211.41Q148.77 210.99 149.56 210.99Q150.35 210.99 150.81 211.41Q151.26 211.83 151.26 212.55Q151.26 213.25 150.81 213.66Q150.35 214.06 149.56 214.06" fill="white" fill-opacity="0.7"/>
<path d="M163.60 229.88Q161.27 229.88 159.84 228.48Q158.42 227.07 158.42 224.60L158.42 221.48Q158.42 219.01 159.84 217.60Q161.27 216.20 163.60 216.20Q165.16 216.20 166.32 216.82Q167.49 217.45 168.14 218.58Q168.78 219.70 168.78 221.24L168.78 223.59L160.53 223.59L160.53 224.84Q160.53 226.30 161.37 227.16Q162.21 228.01 163.60 228.01Q164.80 228.01 165.58 227.54Q166.36 227.07 166.53 226.28L168.69 226.28Q168.47 227.94 167.08 228.91Q165.69 229.88 163.60 229.88M160.53 221.24L160.53 221.91L166.67 221.91L166.67 221.24Q166.67 219.68 165.87 218.83Q165.06 217.98 163.60 217.98Q162.14 217.98 161.33 218.83Q160.53 219.68 160.53 221.24" fill="white" fill-opacity="0.7"/>
<path d="M183.16 229.64L179.32 229.64Q177.69 229.64 176.70 228.69Q175.72 227.74 175.72 226.16L175.72 218.41L171.93 218.41L171.93 216.44L175.72 216.44L175.72 212.72L177.88 212.72L177.88 216.44L183.28 216.44L183.28 218.41L177.88 218.41L177.88 226.16Q177.88 226.83 178.28 227.25Q178.67 227.67 179.32 227.67L183.16 227.67" fill="white" fill-opacity="0.7"/>
<path d="M191.25 229.88Q189.21 229.88 188.01 228.74Q186.81 227.60 186.81 225.75Q186.81 224.53 187.36 223.62Q187.91 222.70 188.90 222.19Q189.88 221.67 191.15 221.67L195.23 221.67L195.23 220.64Q195.23 218.07 192.42 218.07Q191.18 218.07 190.41 218.53Q189.64 218.98 189.59 219.80L187.43 219.80Q187.55 218.24 188.88 217.22Q190.22 216.20 192.42 216.20Q194.82 216.20 196.11 217.35Q197.39 218.50 197.39 220.57L197.39 229.64L195.26 229.64L195.26 227.24L195.21 227.24Q195.02 228.46 193.98 229.17Q192.95 229.88 191.25 229.88M191.78 228.06Q193.36 228.06 194.30 227.29Q195.23 226.52 195.23 225.20L195.23 223.35L191.39 223.35Q190.34 223.35 189.68 223.99Q189.02 224.62 189.02 225.68Q189.02 226.78 189.75 227.42Q190.48 228.06 191.78 228.06" fill="white" fill-opacity="0.7"/>
<path d="M204.45 229.64L202.29 229.64L202.29 216.44L204.45 216.44L204.45 218.96L204.50 218.96Q204.66 217.69 205.58 216.94Q206.49 216.20 208.02 216.20Q210.09 216.20 211.20 217.44Q212.32 218.67 212.32 220.95L212.32 222.08L210.16 222.08L210.16 220.95Q210.16 218.07 207.35 218.07Q205.94 218.07 205.19 218.89Q204.45 219.70 204.45 221.24" fill="white" fill-opacity="0.7"/>
<path d="M220.53 233.96L218.27 233.96L220.22 228.82L215.30 216.44L217.62 216.44L220.74 224.60Q220.94 225.08 221.10 225.61Q221.27 226.14 221.34 226.52Q221.42 226.14 221.58 225.61Q221.75 225.08 221.92 224.60L224.82 216.44L227.10 216.44" fill="white" fill-opacity="0.7"/>
<path d="MNaN 229.64L245.92 229.64L245.92 212.12L248.08 212.12L248.08 227.67LNaN 227.67" fill="white" fill-opacity="0.7"/>
<path d="M261.02 229.64L258.93 229.64L258.93 212.12L262.12 212.12L264.35 219.70L266.68 212.12L269.87 212.12L269.87 229.64L267.78 229.64L267.78 221.36Q267.78 220.18 267.82 218.66Q267.86 217.14 267.93 215.58QNaN 214.02 268.10 212.77L265.26 221.82L263.39 221.82L260.68 212.98Q260.87 214.76 260.94 216.87Q261.02 218.98 261.02 221.36" fill="white" fill-opacity="0.7"/>
<path d="M278.90 229.88Q276.35 229.88 274.84 228.54Q273.33 227.19 273.33 224.84L275.49 224.84Q275.49 226.30 276.42 227.13Q277.36 227.96 278.90 227.96Q280.38 227.96 281.27 227.10Q282.16 226.23 282.16 224.84Q282.16 223.78 281.60 223Q281.03 222.22 279.98 221.94L277.31 221.19Q275.66 220.71 274.71 219.48Q273.76 218.24 273.76 216.56Q273.76 215.17 274.38 214.11Q275.01 213.06 276.14 212.47Q277.26 211.88 278.73 211.88Q280.22 211.88 281.36 212.47Q282.50 213.06 283.14 214.10Q283.79 215.14 283.79 216.51L281.63 216.51Q281.63 215.31 280.82 214.56Q280 213.80 278.73 213.80Q277.46 213.80 276.66 214.56Q275.87 215.31 275.87 216.51Q275.87 217.47 276.39 218.16Q276.90 218.84 277.84 219.10L280.58 219.87Q282.33 220.35 283.30 221.68Q284.27 223.02 284.27 224.84Q284.27 227.14 282.81 228.51Q281.34 229.88 278.90 229.88" fill="white" fill-opacity="0.7"/>
<path d="M293.20 229.88Q292.31 229.88 291.77 229.35Q291.23 228.82 291.23 227.98Q291.23 227.10 291.77 226.54Q292.31 225.99 293.20 225.99Q294.09 225.99 294.63 226.54Q295.17 227.10 295.17 227.98Q295.17 228.82 294.63 229.35Q294.09 229.88 293.20 229.88" fill="white" fill-opacity="0.7"/>
<path d="M91.18 137.02Q81.49 137.02 75.78 131.60Q70.06 126.17 70.06 116.67L70.06 85.28Q70.06 75.87 75.78 70.44Q81.49 65.02 91.18 65.02Q100.78 65.02 106.50 70.49Q112.21 75.96 112.21 85.28L102.70 85.28Q102.70 79.61 99.63 76.54Q96.56 73.47 91.18 73.47Q85.71 73.47 82.64 76.54Q79.57 79.61 79.57 85.28L79.57 116.67Q79.57 122.43 82.64 125.50Q85.71 128.57 91.18 128.57Q96.56 128.57 99.63 125.50Q102.70 122.43 102.70 116.67L102.70 107.55L89.07 107.55L89.07 99.10L112.21 99.10L112.21 116.67Q112.21 126.08 106.50 131.55Q100.78 137.02 91.18 137.02M169.71 136.06L128.91 136.06L128.91 65.98L169.71 65.98L169.71 74.52L138.32 74.52L138.32 95.36L166.35 95.36L166.35 103.61L138.32 103.61L138.32 127.52L169.71 127.52L169.71 136.06M210.80 136.06L201.30 136.06L201.30 74.62L182.29 74.62L182.29 65.98L229.71 65.98L229.71 74.62L210.80 74.62L210.80 136.06M263.98 137.02Q254.29 137.02 248.58 131.60Q242.86 126.17 242.86 116.67L242.86 85.28Q242.86 75.87 248.58 70.44Q254.29 65.02 263.98 65.02Q273.58 65.02 279.30 70.49Q285.01 75.96 285.01 85.28L275.50 85.28Q275.50 79.61 272.43 76.54Q269.36 73.47 263.98 73.47Q258.51 73.47 255.44 76.54Q252.37 79.61 252.37 85.28L252.37 116.67Q252.37 122.43 255.44 125.50Q258.51 128.57 263.98 128.57Q269.36 128.57 272.43 125.50Q275.50 122.43 275.50 116.67L275.50 107.55L261.87 107.55L261.87 99.10L285.01 99.10L285.01 116.67Q285.01 126.08 279.30 131.55Q273.58 137.02 263.98 137.02M321.20 137.02Q311.60 137.02 306.03 131.45Q300.46 125.88 300.46 115.71L300.46 86.24Q300.46 76.16 306.03 70.59Q311.60 65.02 321.20 65.02Q330.80 65.02 336.37 70.54Q341.94 76.06 341.94 86.24L341.94 115.71Q341.94 125.88 336.37 131.45Q330.80 137.02 321.20 137.02M321.20 128.57Q326.58 128.57 329.50 125.50Q332.43 122.43 332.43 116.67L332.43 85.28Q332.43 79.61 329.55 76.54Q326.67 73.47 321.20 73.47Q315.73 73.47 312.85 76.54Q309.97 79.61 309.97 85.28L309.97 116.67Q309.97 122.43 312.90 125.50Q315.82 128.57 321.20 128.57M436.78 137.02Q427.09 137.02 421.38 131.60Q415.66 126.17 415.66 116.67L415.66 85.28Q415.66 75.87 421.38 70.44Q427.09 65.02 436.78 65.02Q446.38 65.02 452.10 70.49Q457.81 75.96 457.81 85.28L448.30 85.28Q448.30 79.61 445.23 76.54Q442.16 73.47 436.78 73.47Q431.31 73.47 428.24 76.54Q425.17 79.61 425.17 85.28L425.17 116.67Q425.17 122.43 428.24 125.50Q431.31 128.57 436.78 128.57Q442.16 128.57 445.23 125.50Q448.30 122.43 448.30 116.67L448.30 107.55L434.67 107.55L434.67 99.10L457.81 99.10L457.81 116.67Q457.81 126.08 452.10 131.55Q446.38 137.02 436.78 137.02MNaN 137.02Q484.40 137.02 478.83 131.45Q473.26 125.88 473.26 115.71L473.26 86.24Q473.26 76.16 478.83 70.59Q484.40 65.02 NaN 65.02Q503.60 65.02 509.17 70.54Q514.74 76.06 514.74 86.24L514.74 115.71Q514.74 125.88 509.17 131.45Q503.60 137.02 NaN 137.02MNaN 128.57Q499.38 128.57 502.30 125.50Q505.23 122.43 505.23 116.67L505.23 85.28Q505.23 79.61 502.35 76.54Q499.47 73.47 NaN 73.47Q488.53 73.47 485.65 76.54Q482.77 79.61 482.77 85.28L482.77 116.67Q482.77 122.43 485.70 125.50Q488.62 128.57 NaN 128.57M556.40 136.06L546.90 136.06L546.90 74.62L527.89 74.62L527.89 65.98L575.31 65.98L575.31 74.62L556.40 74.62L556.40 136.06M609.20 137.02Q599.60 137.02 594.03 131.45Q588.46 125.88 588.46 115.71L588.46 86.24Q588.46 76.16 594.03 70.59Q599.60 65.02 609.20 65.02Q618.80 65.02 624.37 70.54Q629.94 76.06 629.94 86.24L629.94 115.71Q629.94 125.88 624.37 131.45Q618.80 137.02 609.20 137.02M609.20 128.57Q614.58 128.57 617.50 125.50Q620.43 122.43 620.43 116.67L620.43 85.28Q620.43 79.61 617.55 76.54Q614.67 73.47 609.20 73.47Q603.73 73.47 600.85 76.54Q597.97 79.61 597.97 85.28L597.97 116.67Q597.97 122.43 600.90 125.50Q603.82 128.57 609.20 128.57M671.60 136.06L662.10 136.06L662.10 74.62L643.09 74.62L643.09 65.98L690.51 65.98L690.51 74.62L671.60 74.62L671.60 136.06M713.55 136.06L704.14 136.06L704.14 65.98L725.84 65.98Q732.27 65.98 737.07 68.52Q741.87 71.07 744.56 75.63Q747.25 80.19 747.25 86.33Q747.25 93.44 743.65 98.52Q740.05 103.61 734.10 105.72L748.21 136.06L737.74 136.06L724.40 106.78L713.55 106.78L713.55 136.06M713.55 74.43L713.55 98.33L725.84 98.33Q731.22 98.33 734.34 95.07Q737.46 91.80 737.46 86.43Q737.46 80.96 734.29 77.69Q731.12 74.43 725.84 74.43L713.55 74.43M767.31 136.06L757.62 136.06L775.76 65.98L788.34 65.98L806.38 136.06L796.69 136.06L792.27 117.82L771.73 117.82L767.31 136.06M778.74 88.92L773.65 109.95L790.35 109.95L785.36 89.02Q783.92 83.26 783.06 79.23Q782.19 75.20 NaN 73.76Q781.81 75.20 780.94 79.23Q780.08 83.26 778.74 88.92M858.70 136.06L820.50 136.06L820.50 127.42L834.80 127.42L834.80 74.62L820.50 74.62L820.50 65.98L858.70 65.98L858.70 74.62L844.40 74.62L844.40 127.42L858.70 127.42L858.70 136.06M885.58 136.06L876.66 136.06L876.66 65.98L888.94 65.98L909.87 125.12Q909.58 122.62 909.34 118.92Q909.10 115.23 908.96 111.24Q908.82 107.26 908.82 103.71L908.82 65.98L917.84 65.98L917.84 136.06L905.46 136.06L884.72 76.92Q884.91 79.42 885.10 83.02Q885.30 86.62 885.44 90.56Q885.58 94.49 885.58 97.95L885.58 136.06M973.90 136.06L935.70 136.06L935.70 127.42LNaN 127.42LNaN 74.62L935.70 74.62L935.70 65.98L973.90 65.98L973.90 74.62L959.60 74.62L959.60 127.42L973.90 127.42L973.90 136.06M1000.78 136.06L991.86 136.06L991.86 65.98L1004.14 65.98L1025.07 125.12Q1024.78 122.62 1024.54 118.92Q1024.30 115.23 1024.16 111.24Q1024.02 107.26 1024.02 103.71L1024.02 65.98L1033.04 65.98L1033.04 136.06L1020.66 136.06L999.92 76.92Q1000.11 79.42 1000.30 83.02Q1000.50 86.62 1000.64 90.56Q1000.78 94.49 1000.78 97.95L1000.78 136.06M1070.38 137.02Q1060.69 137.02 1054.98 131.60Q1049.26 126.17 1049.26 116.67L1049.26 85.28Q1049.26 75.87 1054.98 70.44Q1060.69 65.02 1070.38 65.02Q1079.98 65.02 1085.70 70.49Q1091.41 75.96 1091.41 85.28L1081.90 85.28Q1081.90 79.61 1078.83 76.54Q1075.76 73.47 1070.38 73.47Q1064.91 73.47 1061.84 76.54Q1058.77 79.61 1058.77 85.28L1058.77 116.67Q1058.77 122.43 1061.84 125.50Q1064.91 128.57 1070.38 128.57Q1075.76 128.57 1078.83 125.50Q1081.90 122.43 1081.90 116.67L1081.90 107.55L1068.27 107.55L1068.27 99.10L1091.41 99.10L1091.41 116.67Q1091.41 126.08 1085.70 131.55Q1079.98 137.02 1070.38 137.02" fill="url(#paint2_linear_0_1)"/>
<g id="Group 1">
<rect id="Rectangle 1" x="26" y="168" width="12" height="184" rx="5" fill="url(#paint3_linear_0_1)" fill-opacity="0.9"/>
</g>
<g id="Group 1_2">
<rect id="Rectangle 2" x="26" y="38" width="12" height="119" rx="5" fill="url(#paint4_linear_0_1)" fill-opacity="0.9"/>
</g>
<ellipse id="Ellipse 1" cx="148.5" cy="573" rx="215.5" ry="214" fill="url(#paint5_linear_0_1)" fill-opacity="0.4"/>
<rect id="Rectangle 3" x="1229" y="48" width="300" height="300" rx="25" fill="#FFFBFB" fill-opacity="0.9"/>
<g id="placeholder-logo"><g transform="translate(1229,48) translate(0.0,60.0) scale(1.2000)"><g fill="#666666">
  <path d="m88.05,27.65c-3.15,4 -3.2,51.2 -0.05,54.35c2.75,2.75 71.7,3.15 74.45,0.45c2.85,-2.9 2.3,-53.85 -0.65,-55.9c-1.95,-1.35 -7.15,-1.55 -36.95,-1.55l-34.7,0l-2.1,2.65zm69.45,3.35c0.65,0 1,8.6 1,23.75l0,23.75l-33,0l-33,0l-0.25,-23c-0.15,-12.6 -0.1,-23.45 0.15,-24.1c0.35,-0.85 8.9,-1.05 32.25,-0.75c17.55,0.2 32.3,0.35 32.85,0.35z"/>
  <path d="m99.15,37.3c-6.85,7.35 4.25,17.35 11.4,10.25c1.35,-1.35 2.45,-3.65 2.45,-5.05c0,-6.45 -9.35,-9.95 -13.85,-5.2z"/>
  <path d="m135,42.5c-0.7,0.85 -5.25,5.15 -10.1,9.6l-8.85,8.1l-3.2,-3.2l-3.15,-3.15l-6.35,6.3c-5.55,5.5 -6.35,6.75 -6.35,10.05l0,3.8l28.5,0l28.5,0l0,-8.6l0,-8.55l-8.15,-7.7c-9.35,-8.85 -9.15,-8.7 -10.85,-6.65zm7.25,15.2c0.95,0.9 1.75,2.9 1.75,4.45c6.35,-5.05 4.75,-7.15 4.9,-11.55c0.95,0 0,0 0,0l-6.65,7.1z"/>
  <path d="m53.65,110.75c0.1,4.8 0.45,8.65 0.75,8.5c0.35,-0.15 1.3,-0.25 2.1,-0.25c1.1,0 1.5,-1.2 1.5,-4.75l0,-4.75l3.25,5c4.9,7.5 6.2,6.75 6.55,-3.75c0.25,-8.15 0.15,-8.75 -1.7,-8.75c-1.65,0 -2.05,0.8 -2.3,4.75l-0.3,4.75l-2.8,-4.75c-4.85,-8.25 -7.25,-6.9 -7.05,4z"/>
  <path d="m91,108.9c0,9.65 0.3,10.1 6.1,10.1c5.8,0 7.15,-2.65 1.65,-3.2l-3.25,-0.3l-0.3,-6.75c-0.25,-5.95 -0.55,-6.75 -2.25,-6.75c-1.75,0 -1.95,0.7 -1.95,6.9z"/>
  <path d="m151,102.45c0,0.25 1,2.15 2.25,4.2c1.2,2.1 2.45,5.8 2.75,8.25c0.65,5.9 4,6.95 4,1.25c0.05,-2.1 1.25,-5.85 2.95,-8.9l2.9,-5.25l-2.5,0c-1.8,0 -2.8,0.85 -3.75,3.1l-1.3,3.05l-1.25,-3.05c-1.1,-2.6 -6.05,-4.8 -6.05,-2.65z"/>
  <path d="m191,107.45c0,9.05 3.4,8.85 4.25,-0.2c0.45,-5 0.35,-5.25 -1.9,-5.25c-2.2,0 -2.35,0.4 -2.35,5.45z"/>
  <path d="m180.8,104.75c-1.3,5.35 0.65,13.6 3.45,14.35c2.3,0.6 2.75,0.4 2.75,-1.2c0,-1.05 -0.45,-1.9 -1,-1.9c-0.55,0 -1,-1.6 -1,-3.5c0,-1.95 0.45,-3.5 1,-3.5c0.55,0 1,-0.7 1,-1.5c0,-0.85 -0.45,-1.5 -1,-1.5c-0.55,0 -1,-0.7 -1,-1.5c0,-2.1 -3.65,-1.9 -4.2,0.25z"/>
  <path d="m71.55,106.55c-2.2,2.25 -2.05,9.7 0.3,11.8c4.5,4.1 10.15,0.75 10.15,-6.1c0,-4.85 -2,-7.25 -6,-7.25c-1.55,0 -3.55,0.7 -4.45,1.55zm6.25,5.8c0.25,3.05 0,3.65 -1.6,3.65c-2.3,0 -3.25,-2.65 -2.05,-5.85c1.25,-3.35 3.3,-2.1 3.65,2.2z"/>
  <path d="m105.75,106.1c-2.5,1.45 -2.45,9.95 0.1,12.25c4.3,3.9 10.15,0.35 10.15,-6.2c0,-6 -5.15,-9.05 -10.25,-6.05zm6.05,6.25c0.25,3.05 0,3.65 -1.6,3.65c-2.3,0 -3.25,-2.65 -2.05,-5.85c1.25,-3.35 3.3,-2.1 3.65,2.2z"/>
  <path d="m119.2,106.2c-3.8,3.8 -0.4,12.55 4.4,11.35c1.9,-0.45 2.45,-0.3 2.15,0.65c-0.25,0.7 -1.55,1.2 -2.85,1.1c-4.05,-0.3 -5.35,0.45 -3.85,2.25c0.85,1.05 2.6,1.45 5.35,1.25l4.1,-0.3l0.3,-8.75l0.3,-8.75l-4.35,0c-2.4,0 -4.9,0.55 -5.55,1.2zm6.6,4.45c0.4,2.85 -2.15,4.85 -3.75,2.95c-0.9,-1.1 -0.9,-2 -0.05,-3.6c1.35,-2.5 3.4,-2.15 3.8,0.65z"/>
  <path d="m133.55,106.55c-2.2,2.25 -2.05,9.7 0.3,11.8c4.5,4.1 10.15,0.75 10.15,-6.1c0,-4.85 -2,-7.25 -6,-7.25c-1.55,0 -3.55,0.7 -4.45,1.55zm6.25,5.8c0.25,3.05 0,3.65 -1.6,3.65c-2.3,0 -3.25,-2.65 -2.05,-5.85c1.25,-3.35 3.3,-2.1 3.65,2.2z"/>
  <path d="m167.65,106.85c-3.9,4.3 -0.75,13.15 4.7,13.15c2.4,0 5.65,-2.75 5.65,-4.85c0,-1.4 -2.65,-1.55 -3.5,-0.15c-0.95,1.55 -4.5,1.15 -4.5,-0.5c0,-1.1 1.1,-1.5 4,-1.5c3.15,0 4,-0.35 4,-1.8c0,-5.3 -6.85,-8.25 -10.35,-4.35z"/>
  <path d="m191,117.5c0,2.15 0.4,2.6 2.25,2.3c1.5,-0.2 2.25,-1 2.25,-2.3c0,-1.3 -0.75,-2.1 -2.25,-2.3c-1.85,-0.3 -2.25,0.15 -2.25,2.3z"/>
 </g></g></g>
</g>
<defs>
<linearGradient id="paint0_linear_0_1" x1="0" y1="198" x2="1584" y2="198" gradientUnits="userSpaceOnUse">
<stop stop-color="#3D052C"/>
<stop offset="1"/>
</linearGradient>
<linearGradient id="paint1_linear_0_1" x1="323" y1="-224" x2="323" y2="352" gradientUnits="userSpaceOnUse">
<stop stop-color="#28F6F2" stop-opacity="0.4"/>
<stop offset="1" stop-color="#17908E" stop-opacity="0.7"/>
</linearGradient>
<linearGradient id="paint2_linear_0_1" x1="148.5" y1="38" x2="148.5" y2="140" gradientUnits="userSpaceOnUse">
<stop stop-color="white"/>
<stop offset="1" stop-color="#999999"/>
</linearGradient>
<linearGradient id="paint3_linear_0_1" x1="38" y1="260" x2="26" y2="260" gradientUnits="userSpaceOnUse">
<stop stop-color="#D9D9D9"/>
<stop offset="1" stop-color="#737373"/>
</linearGradient>
<linearGradient id="paint4_linear_0_1" x1="38" y1="97.5" x2="26" y2="97.5" gradientUnits="userSpaceOnUse">
<stop stop-color="#D9D9D9"/>
<stop offset="1" stop-color="#737373"/>
</linearGradient>
<linearGradient id="paint5_linear_0_1" x1="27.5" y1="434.5" x2="148.5" y2="787" gradientUnits="userSpaceOnUse">
<stop stop-color="#2E21BC"/>
<stop offset="1" stop-color="#150F56"/>
</linearGradient>
<clipPath id="clip0_0_1">
<rect width="1584" height="396" fill="white"/>
</clipPath>
</defs>
</svg>
